<svg xmlns="http://www.w3.org/2000/svg" viewBox="0 0 128 128" role="img" aria-labelledby="title desc">
  <title id="title">Layered landscape logo</title>
  <desc id="desc">A square outlined logo with layered orange, blue, and green landscape waves.</desc>
  <rect x="22" y="16" width="84" height="92" rx="1" fill="#e9edf2" stroke="#05070d" stroke-width="5"/>
  <path
    d="M24.5 58
       C39 55 47 45 58 37
       C68 30 80 31 91 38
       C96 41 100 44 103.5 46
       L103.5 79
       C91 75 81 70 68 71
       C55 72 45 82 24.5 84 Z"
    fill="#ff743f"
    stroke="#05070d"
    stroke-width="5"
    stroke-linejoin="round"/>
  <path
    d="M24.5 82
       C39 77 50 68 61 62
       C73 56 87 58 103.5 68
       L103.5 93
       C87 86 74 82 60 86
       C46 90 37 100 24.5 101 Z"
    fill="#5f93db"
    stroke="#05070d"
    stroke-width="5"
    stroke-linejoin="round"/>
  <path
    d="M24.5 101
       C39 98 49 91 60 86
       C72 81 88 83 103.5 95
       L103.5 106
       L24.5 106 Z"
    fill="#55794f"
    stroke="#05070d"
    stroke-width="5"
    stroke-linejoin="round"/>
</svg>
